<svg width="53" height="52" viewBox="0 0 53 52" fill="none" xmlns="http://www.w3.org/2000/svg">
<g clip-path="url(#clip0_620_3465)">
<path d="M19.9331 45.9998C23.6131 45.9998 26.5998 43.0132 26.5998 39.3332V32.6665H19.9331C16.2531 32.6665 13.2665 35.6532 13.2665 39.3332C13.2665 43.0132 16.2531 45.9998 19.9331 45.9998Z" fill="white"/>
<path d="M13.2665 26.0002C13.2665 22.3202 16.2531 19.3335 19.9331 19.3335H26.5998V32.6668H19.9331C16.2531 32.6668 13.2665 29.6802 13.2665 26.0002Z" fill="white"/>
<path d="M13.2665 12.6667C13.2665 8.98667 16.2531 6 19.9331 6H26.5998V19.3333H19.9331C16.2531 19.3333 13.2665 16.3467 13.2665 12.6667Z" fill="white"/>
<path d="M26.5999 6H33.2665C36.9465 6 39.9332 8.98667 39.9332 12.6667C39.9332 16.3467 36.9465 19.3333 33.2665 19.3333H26.5999V6Z" fill="white"/>
<path d="M39.9332 26.0002C39.9332 29.6802 36.9465 32.6668 33.2665 32.6668C29.5865 32.6668 26.5999 29.6802 26.5999 26.0002C26.5999 22.3202 29.5865 19.3335 33.2665 19.3335C36.9465 19.3335 39.9332 22.3202 39.9332 26.0002Z" fill="white"/>
</g>
<rect x="1.09998" y="0.5" width="51" height="51" rx="9.5" stroke="white"/>
<defs>
<clipPath id="clip0_620_3465">
<rect width="40" height="40" fill="white" transform="translate(6.59998 6)"/>
</clipPath>
</defs>
</svg>
