<svg width="53" height="52" viewBox="0 0 53 52" fill="none" xmlns="http://www.w3.org/2000/svg">
<path d="M42.3916 7.00535C36.5472 6.98895 14.9908 7.01655 10.0084 7.00535C8.45795 7.00535 7.19995 8.22495 7.19995 9.72695V42.2793C7.19995 43.7817 8.45795 45.0002 10.0084 45.0002H42.3916C43.9428 45.0002 45.2 43.7817 45.2 42.2789V9.72695C45.2 8.22495 43.9428 7.00535 42.3916 7.00535Z" fill="white"/>
<path d="M27.5811 38.802C27.5811 38.802 27.5811 29.2508 27.5811 29.2504C27.5255 27.4952 28.5747 25.8572 30.6859 25.7836C32.7431 25.7836 33.5663 27.352 33.5663 29.6516V38.8016H39.2519V28.994C39.2519 23.74 36.4471 21.2952 32.7059 21.2952C29.6387 21.2952 28.2915 23.0092 27.5431 24.1768L27.5811 21.6968H21.8955C21.9695 23.3016 21.8951 38.802 21.8951 38.802H27.5811ZM18.7479 31.3844V21.6964H13.0615V38.8016H18.7483C18.7471 37.0056 18.7503 33.1552 18.7479 31.3844ZM15.9059 19.3616C17.8883 19.3616 19.1227 18.048 19.1227 16.4068C19.1063 12.448 12.7211 12.492 12.7263 16.4064C12.7219 18.0604 13.9903 19.382 15.9059 19.3616Z" fill="black"/>
<rect x="0.699951" y="0.5" width="51" height="51" rx="9.5" stroke="white"/>
</svg>
