<svg width="53" height="52" viewBox="0 0 53 52" fill="none" xmlns="http://www.w3.org/2000/svg">
<path d="M26.3906 9.3335C23.0942 9.3335 19.8719 10.311 17.131 12.1423C14.3902 13.9737 12.254 16.5767 10.9926 19.6221C9.7311 22.6675 9.40104 26.0187 10.0441 29.2517C10.6872 32.4847 12.2746 35.4544 14.6054 37.7853C16.9363 40.1162 19.906 41.7035 23.139 42.3466C26.3721 42.9897 29.7232 42.6596 32.7686 41.3982C35.814 40.1367 38.417 38.0005 40.2484 35.2597C42.0797 32.5188 43.0572 29.2965 43.0572 26.0002C43.0574 23.8114 42.6264 21.6441 41.7889 19.6219C40.9514 17.5997 39.7237 15.7623 38.1761 14.2146C36.6284 12.667 34.791 11.4393 32.7688 10.6018C30.7466 9.76429 28.5793 9.33331 26.3906 9.3335ZM31.6897 34.5876C31.6273 34.7432 31.5324 34.8836 31.4113 34.9994C31.2903 35.1153 31.1458 35.204 30.9877 35.2594C30.8295 35.3149 30.6613 35.3359 30.4944 35.3211C30.3275 35.3063 30.1656 35.2559 30.0197 35.1734L25.4953 31.6578L22.5914 34.3368C22.524 34.3866 22.4452 34.4187 22.3622 34.43C22.2792 34.4413 22.1947 34.4316 22.1164 34.4017L22.6731 29.421L22.6909 29.4351L22.7023 29.3368C22.7023 29.3368 30.844 21.9242 31.1756 21.6084C31.5114 21.2934 31.4006 21.2251 31.4006 21.2251C31.4197 20.8409 30.7981 21.2251 30.7981 21.2251L20.0106 28.1652L15.5181 26.6352C15.5181 26.6352 14.8281 26.3877 14.7631 25.8435C14.6947 25.3035 15.5406 25.0102 15.5406 25.0102L33.4022 17.9143C33.4022 17.9143 34.8706 17.2601 34.8706 18.3435L31.6897 34.5876Z" fill="white"/>
<rect x="0.900024" y="0.5" width="51" height="51" rx="9.5" stroke="white"/>
</svg>
