<svg width="53" height="52" viewBox="0 0 53 52" fill="none" xmlns="http://www.w3.org/2000/svg">
<path d="M45.3685 14.4486C44.0017 15.0558 42.5333 15.4642 40.9921 15.6486C42.5661 14.7058 43.7729 13.2134 44.3413 11.4338C42.8701 12.3066 41.2393 12.9406 39.5021 13.2834C38.1125 11.8022 36.1329 10.8766 33.9417 10.8766C29.0985 10.8118 25.3749 15.5434 26.5209 20.2306C20.1893 19.9134 14.5761 16.8798 10.8169 12.269C8.76526 15.6146 9.93006 20.399 13.1753 22.4414C11.9269 22.4014 10.7513 22.0586 9.72446 21.4886C9.67686 25.2106 12.3173 28.353 15.8361 29.0542C14.7549 29.3558 13.5093 29.403 12.3953 29.1854C13.3653 32.2118 16.1789 34.4158 19.5125 34.477C16.4985 36.8854 12.2789 38.141 8.23206 37.6322C24.5049 47.647 42.4941 34.5262 41.5653 18.3918C43.0545 17.3166 44.3473 15.9754 45.3685 14.4486Z" fill="white"/>
<rect x="1.30005" y="0.5" width="51" height="51" rx="9.5" stroke="white"/>
</svg>
